<?xml version="1.0" encoding="utf-8"?>
<!-- Generator: Adobe Illustrator 25.4.1, SVG Export Plug-In . SVG Version: 6.00 Build 0)  -->
<svg version="1.1" id="Layer_1" xmlns="http://www.w3.org/2000/svg" xmlns:xlink="http://www.w3.org/1999/xlink" x="0px" y="0px"
	 viewBox="0 0 32 32" style="enable-background:new 0 0 32 32;" xml:space="preserve">
<style type="text/css">
	.st0{fill:#F5B463;}
</style>
<g>
	<path class="st0" d="M27.6,5.6c1.5,1.8,2.7,3.8,3.3,6.1c0.5,1.6,0.6,3.3,0.6,5c-0.1,2.1-0.6,4.2-1.5,6.1c-0.8,1.6-1.7,3-3,4.3
		c-1.7,1.8-3.7,3-6.1,3.8c-1.3,0.5-2.7,0.7-4.1,0.8c-0.2,0-0.4,0-0.6,0c-1.9,0-3.7-0.3-5.5-0.9c-2.7-1-4.9-2.6-6.7-4.8
		c-0.5-0.6-1-1.3-1.4-2c-1.3-2.3-2.1-5-2.1-7.6c0-0.9,0-1.8,0.2-2.7c0.4-2.1,1.1-4.2,2.3-6C4.6,5.2,6.7,3.2,9.2,2
		c1.9-0.9,4-1.5,6.1-1.6c2.5-0.1,5,0.4,7.3,1.5c0.6,0.3,1.1,0.6,1.6,0.9C25.5,3.5,26.6,4.5,27.6,5.6z M22.2,3.4
		c-0.8-0.4-1.7-0.7-2.6-1c-2.5-0.7-5.3-0.6-7.7,0.2c-1.6,0.5-3.1,1.3-4.4,2.4c-0.6,0.5-1.2,1-1.7,1.6C4,8.3,2.9,10.6,2.4,13
		c-0.8,4.1,0,8.3,2.6,11.6c0.8,1.1,1.8,2,2.9,2.8c0.6,0.5,1.3,0.8,2,1.2c3.4,1.7,7.3,1.9,10.9,0.6c0.7-0.2,1.3-0.5,2-0.9
		c3.1-1.7,5.5-4.6,6.6-7.9c0.1-0.4,0.2-0.7,0.3-1.1c0.4-1.6,0.5-3.3,0.3-4.9c0-0.2,0-0.4-0.1-0.6c-0.4-2.5-1.4-4.7-2.9-6.6
		c-0.1-0.2-0.3-0.3-0.4-0.5C25.3,5.3,23.8,4.2,22.2,3.4z"/>
	<path class="st0" d="M10.8,27.1c-0.3-0.1-0.6-0.3-0.9-0.5c-3.4-2-5.7-5.5-6.1-9.5c-0.2-1.8,0-3.6,0.6-5.2C5,10.3,5.9,8.8,7.1,7.5
		C7.9,6.7,8.7,6,9.6,5.5c0.5-0.3,1.1-0.6,1.8-0.9c2.4-1,5-1.2,7.4-0.6c2.6,0.7,4.9,2.1,6.6,4.2c1.2,1.5,2,3.1,2.4,4.9
		c0.1,0.6,0.2,1.2,0.3,1.9c0.1,1.8-0.1,3.5-0.7,5.1c-0.6,1.8-1.6,3.3-2.9,4.6c-2.3,2.4-5.6,3.6-8.9,3.5c-0.2,0-0.4,0-0.6,0
		C13.6,28.1,12.1,27.8,10.8,27.1z M17.4,6.1c-1,0.1-1.8,0.9-2,1.8c0,0,0,0.2,0,0.6c0,0.5,0,1,0,1.5c0,0.2,0,0.3,0.2,0.4
		c0.2,0.1,0.5,0.1,0.6-0.1c0-0.1,0-0.1,0-0.2c0-0.6,0-1.2,0-1.7c0-0.7,0.5-1.2,1.2-1.3c0.1,0,0.2,0,0.2,0C18,6.6,17.8,6,17.4,6.1z
		 M8.9,10.6c0.2-1,0.9-1.9,2-2.1c0.1,0,0.3,0,0.5,0c0.6,0,1.2,0,1.8,0c0.2,0,0.3,0,0.5,0.2c0.2,0.2,0.2,0.6-0.1,0.7
		c-0.1,0-0.2,0-0.3,0c-0.5,0-1,0-1.5,0c-0.3,0-0.5,0-0.6,0c-0.7,0.1-1.3,0.7-1.2,1.5c0.1,0.5,0.4,0.9,0.9,1c0.1,0,0.3,0,0.6,0
		c3,0,6,0,9,0c0.3,0,0.5,0,0.6,0.2c0.3,0.3,0.2,0.8-0.2,0.8c-0.4,0-0.9,0-1.3,0c-0.3,0-0.5,0-0.6,0c-0.6,0.1-1.1,0.5-1.3,1
		c-0.1,0.3-0.1,0.6-0.1,1c0,1.2,0,3.7,0,7.7c0,0.2,0.1,0.3,0.2,0.4c0.2,0.1,0.5,0,0.6-0.2c0,0,0-0.1,0-0.3c0-2.6,0-5.2,0-7.8
		c0-0.2,0-0.3,0-0.4c0.1-0.4,0.5-0.6,0.9-0.6c0.5,0,1,0,1.5,0c0.2,0,0.4,0,0.4,0c0.4-0.1,0.6-0.4,0.8-0.7c0.3-0.7-0.2-1.5-0.9-1.7
		c-0.2-0.1-0.4-0.1-0.6-0.1c-3.1,0-6.2,0-9.2,0c-0.1,0-0.2,0-0.3-0.1c-0.2-0.2-0.1-0.5,0.2-0.7c0.1-0.1,0.3-0.1,0.4-0.1
		c0.7,0,1.3,0,2,0c0.3,0,0.5,0,0.8-0.2c1-0.8,0.4-2.3-0.8-2.3c-0.6,0-1.2,0-1.8,0c-0.3,0-0.5,0-0.6,0c-1.1,0.2-2.1,0.9-2.5,2
		c-0.3,0.9-0.4,2,0.1,2.9c0.3,0.6,0.9,1,1.5,1c0.1,0,0.3,0,0.6,0c1.8,0,3.7,0,5.5,0c0.1,0,0.2,0,0.2,0c0.3-0.1,0.4-0.6,0-0.7
		c-0.1,0-0.2,0-0.3,0c-1.9,0-3.8,0-5.7,0c-0.3,0-0.4,0-0.7-0.1C8.9,12.3,8.7,11.3,8.9,10.6z M23.2,10.8c-0.5-0.8-1.5-1.4-2.4-1.4
		c-0.8,0-1.6,0-2.4,0c-0.5,0-0.6-0.7-0.2-0.9c0.1,0,0.2,0,0.3,0c0.7,0,1.5,0,2.2,0c0.1,0,0.2,0,0.2,0c0.4-0.1,0.4-0.6,0.1-0.7
		c-0.1,0-0.2,0-0.3,0c-0.7,0-1.4,0-2.1,0c-0.3,0-0.5,0-0.6,0c-0.7,0.2-1.1,0.8-0.9,1.5c0.1,0.4,0.4,0.8,0.9,0.9c0.1,0,0.3,0,0.6,0
		c0.7,0,1.4,0,2,0c1,0,1.8,0.6,2.1,1.5c0.2,0.7,0.2,1.5-0.1,2.1c-0.2,0.5-0.6,0.8-1.2,0.8c-0.3,0-0.7,0-1,0c-0.3,0-0.6,0-0.8,0.2
		c-0.4,0.3-0.5,0.7-0.5,1.2c0,0.6,0.6,1.1,1.2,1.1c0.5,0,0.9,0,1.4,0c0.3,0,0.6,0,0.8-0.1c1.2-0.2,2.2-1.1,2.6-2.3
		c0.1-0.2,0-0.3-0.1-0.4c-0.2-0.3-0.6-0.2-0.7,0.1c-0.1,0.2-0.2,0.5-0.3,0.7c-0.5,0.8-1.3,1.2-2.3,1.2c-0.5,0-0.9,0-1.4,0
		c-0.1,0-0.2,0-0.2,0c-0.3-0.1-0.4-0.4-0.3-0.7c0.1-0.2,0.2-0.3,0.5-0.3c0.3,0,0.6,0,0.9,0c0.3,0,0.5,0,0.6,0
		c1.1-0.2,1.7-1.3,1.8-2.3C23.7,12.2,23.6,11.4,23.2,10.8z M16.2,15.5c-0.1-0.5-0.6-1-1.1-1c-1,0-2.9,0-5.9,0
		c-0.7,0-1.2-0.3-1.5-0.9c0-0.1-0.1-0.2-0.1-0.3c0-0.1,0-0.2-0.1-0.3c-0.1-0.2-0.4-0.3-0.6-0.1c-0.2,0.2-0.1,0.5-0.1,0.7
		c0.3,0.9,1,1.5,1.9,1.7c0.3,0,0.7,0,1,0c1.7,0,3.4,0,5.1,0c0.1,0,0.2,0,0.3,0c0.1,0,0.2,0.1,0.3,0.3c0,0.1,0,0.2,0,0.3
		c0,2,0,4,0,5.9c0,0.1,0,0.2,0,0.3c0.1,0.3,0.5,0.3,0.7,0.1c0.1-0.1,0.1-0.2,0.1-0.3c0-2,0-4.1,0-6.1C16.2,15.7,16.2,15.6,16.2,15.5
		z M14.1,16.7c0-0.3-0.2-0.5-0.5-0.5h0c-0.3,0-0.5,0.2-0.5,0.5l0,0c0,0.3,0.2,0.5,0.5,0.5C13.9,17.2,14.1,17,14.1,16.7z M8.7,16.4
		c-0.8,0.3-1.2,1-1.3,1.8c0,0.1,0,0.2,0,0.3c0.2,0.4,0.7,0.3,0.7-0.1c0,0,0-0.1,0-0.1c0-0.6,0.5-1,1-1.2c0.1,0,0.3,0,0.5,0
		c0.7,0,1.4,0,2.1,0c0.1,0,0.2,0,0.2,0c0.2-0.1,0.3-0.3,0.2-0.5c-0.1-0.2-0.2-0.2-0.4-0.2c-0.7,0-1.5,0-2.2,0
		C9.2,16.3,9,16.3,8.7,16.4z M22,18.6c0.2-0.2,0.3-0.5,0.1-0.7c0,0,0,0,0,0c-0.2-0.2-0.5-0.3-0.7-0.1v0c-0.2,0.2-0.3,0.5-0.1,0.7
		c0,0,0,0,0,0C21.5,18.7,21.8,18.8,22,18.6z M20.2,18.2c0-0.3-0.2-0.5-0.5-0.5c-0.3,0-0.5,0.2-0.5,0.5s0.2,0.5,0.5,0.5c0,0,0,0,0,0
		C20,18.7,20.2,18.5,20.2,18.2C20.2,18.2,20.2,18.2,20.2,18.2z M13.6,18.2c-0.3-0.1-0.5-0.1-0.8-0.1c-0.8,0-1.5,0-2.3,0
		c-0.2,0-0.3,0-0.4,0c-0.8,0.2-1.3,1-1,1.8c0.2,0.5,0.7,0.8,1.2,0.9c0.2,0,0.4,0,0.6,0c0.2,0,0.3,0,0.4-0.2c0.1-0.2,0.1-0.5-0.2-0.6
		c0,0-0.1,0-0.2,0c-0.2,0-0.4,0-0.6,0c-0.2,0-0.3-0.1-0.4-0.2c-0.3-0.3-0.1-0.8,0.3-0.9c0.1,0,0.2,0,0.5,0c0.8,0,1.6,0,2.3,0
		c0.1,0,0.2,0,0.3,0c0.2,0.1,0.3,0.2,0.4,0.4c0,0.1,0,0.2,0,0.4c0,1.5,0,3.1,0,4.6c0,0.3,0.2,0.5,0.5,0.4c0.1,0,0.2-0.1,0.2-0.2
		c0-0.1,0-0.1,0-0.3c0-1.6,0-3.2,0-4.8c0-0.2,0-0.3,0-0.3C14.3,18.7,14,18.4,13.6,18.2z M20.2,20c0-0.3-0.2-0.5-0.5-0.5
		c-0.3,0-0.5,0.2-0.5,0.5l0,0c0,0.3,0.2,0.5,0.5,0.5h0C20,20.5,20.2,20.3,20.2,20L20.2,20z M16.3,23.4c0-0.3-0.2-0.5-0.5-0.5
		s-0.5,0.2-0.5,0.5s0.2,0.5,0.5,0.5h0C16.1,23.9,16.3,23.6,16.3,23.4L16.3,23.4z M18,24.5c0.2-0.2,0.3-0.5,0.1-0.7
		c-0.2-0.2-0.5-0.3-0.7-0.1c0,0,0,0,0,0c-0.2,0.2-0.3,0.5-0.1,0.7C17.5,24.6,17.8,24.7,18,24.5C18,24.5,18,24.5,18,24.5z M16.3,25.1
		c0-0.3-0.2-0.5-0.5-0.5h0c-0.3,0-0.5,0.2-0.5,0.5v0c0,0.3,0.2,0.5,0.5,0.5h0C16.1,25.6,16.3,25.4,16.3,25.1L16.3,25.1z"/>
</g>
</svg>
